<mxfile host="app.diagrams.net" modified="2023-12-05T23:58:16.794Z" agent="Mozilla/5.0 (Macintosh; Intel Mac OS X 10_15_7) AppleWebKit/537.36 (KHTML, like Gecko) Chrome/119.0.0.0 Safari/537.36" etag="1bSUySmLIvPfuPagNhzW" version="22.1.5" type="device">
  <diagram name="Page-1" id="n0mfOHGeVxuZvLlO0nxL">
    <mxGraphModel dx="1146" dy="642" grid="1" gridSize="10" guides="1" tooltips="1" connect="1" arrows="1" fold="1" page="1" pageScale="1" pageWidth="827" pageHeight="1169" math="0" shadow="0">
      <root>
        <mxCell id="0" />
        <mxCell id="1" parent="0" />
        <mxCell id="JwqNrnTWfQRhDdLODumR-9" style="edgeStyle=orthogonalEdgeStyle;rounded=0;orthogonalLoop=1;jettySize=auto;html=1;exitX=0.5;exitY=1;exitDx=0;exitDy=0;entryX=0.5;entryY=0;entryDx=0;entryDy=0;" edge="1" parent="1" source="JwqNrnTWfQRhDdLODumR-1" target="JwqNrnTWfQRhDdLODumR-2">
          <mxGeometry relative="1" as="geometry" />
        </mxCell>
        <mxCell id="JwqNrnTWfQRhDdLODumR-1" value="Tokenisation" style="rounded=0;whiteSpace=wrap;html=1;" vertex="1" parent="1">
          <mxGeometry x="30" y="460" width="120" height="60" as="geometry" />
        </mxCell>
        <mxCell id="JwqNrnTWfQRhDdLODumR-10" style="edgeStyle=orthogonalEdgeStyle;rounded=0;orthogonalLoop=1;jettySize=auto;html=1;exitX=0.5;exitY=1;exitDx=0;exitDy=0;entryX=0.5;entryY=0;entryDx=0;entryDy=0;" edge="1" parent="1" source="JwqNrnTWfQRhDdLODumR-2" target="JwqNrnTWfQRhDdLODumR-3">
          <mxGeometry relative="1" as="geometry" />
        </mxCell>
        <mxCell id="JwqNrnTWfQRhDdLODumR-2" value="Parsing" style="rounded=0;whiteSpace=wrap;html=1;" vertex="1" parent="1">
          <mxGeometry x="30" y="550" width="120" height="60" as="geometry" />
        </mxCell>
        <mxCell id="JwqNrnTWfQRhDdLODumR-11" style="edgeStyle=orthogonalEdgeStyle;rounded=0;orthogonalLoop=1;jettySize=auto;html=1;exitX=1;exitY=0.5;exitDx=0;exitDy=0;entryX=0;entryY=0.5;entryDx=0;entryDy=0;" edge="1" parent="1" source="JwqNrnTWfQRhDdLODumR-3" target="JwqNrnTWfQRhDdLODumR-4">
          <mxGeometry relative="1" as="geometry" />
        </mxCell>
        <mxCell id="JwqNrnTWfQRhDdLODumR-3" value="Semantic Analysis" style="rounded=0;whiteSpace=wrap;html=1;" vertex="1" parent="1">
          <mxGeometry x="30" y="630" width="120" height="60" as="geometry" />
        </mxCell>
        <mxCell id="JwqNrnTWfQRhDdLODumR-4" value="Type Checking" style="rounded=0;whiteSpace=wrap;html=1;" vertex="1" parent="1">
          <mxGeometry x="200" y="460" width="120" height="60" as="geometry" />
        </mxCell>
        <mxCell id="JwqNrnTWfQRhDdLODumR-14" style="edgeStyle=orthogonalEdgeStyle;rounded=0;orthogonalLoop=1;jettySize=auto;html=1;exitX=0.5;exitY=1;exitDx=0;exitDy=0;entryX=0.5;entryY=0;entryDx=0;entryDy=0;" edge="1" parent="1" source="JwqNrnTWfQRhDdLODumR-5" target="JwqNrnTWfQRhDdLODumR-6">
          <mxGeometry relative="1" as="geometry" />
        </mxCell>
        <mxCell id="JwqNrnTWfQRhDdLODumR-5" value="Formal Verification" style="rounded=0;whiteSpace=wrap;html=1;" vertex="1" parent="1">
          <mxGeometry x="200" y="550" width="120" height="60" as="geometry" />
        </mxCell>
        <mxCell id="JwqNrnTWfQRhDdLODumR-6" value="Runtime assertion generation" style="rounded=0;whiteSpace=wrap;html=1;" vertex="1" parent="1">
          <mxGeometry x="200" y="630" width="120" height="60" as="geometry" />
        </mxCell>
        <mxCell id="JwqNrnTWfQRhDdLODumR-16" style="edgeStyle=orthogonalEdgeStyle;rounded=0;orthogonalLoop=1;jettySize=auto;html=1;exitX=0.5;exitY=1;exitDx=0;exitDy=0;" edge="1" parent="1" source="JwqNrnTWfQRhDdLODumR-7" target="JwqNrnTWfQRhDdLODumR-8">
          <mxGeometry relative="1" as="geometry" />
        </mxCell>
        <mxCell id="JwqNrnTWfQRhDdLODumR-7" value="Transpilation to IR" style="rounded=0;whiteSpace=wrap;html=1;" vertex="1" parent="1">
          <mxGeometry x="360" y="460" width="120" height="60" as="geometry" />
        </mxCell>
        <mxCell id="JwqNrnTWfQRhDdLODumR-8" value="Compilation" style="rounded=0;whiteSpace=wrap;html=1;" vertex="1" parent="1">
          <mxGeometry x="360" y="550" width="120" height="60" as="geometry" />
        </mxCell>
        <mxCell id="JwqNrnTWfQRhDdLODumR-12" style="edgeStyle=orthogonalEdgeStyle;rounded=0;orthogonalLoop=1;jettySize=auto;html=1;exitX=1;exitY=0.5;exitDx=0;exitDy=0;entryX=-0.004;entryY=0.569;entryDx=0;entryDy=0;entryPerimeter=0;" edge="1" parent="1" source="JwqNrnTWfQRhDdLODumR-6" target="JwqNrnTWfQRhDdLODumR-7">
          <mxGeometry relative="1" as="geometry" />
        </mxCell>
        <mxCell id="JwqNrnTWfQRhDdLODumR-13" style="edgeStyle=orthogonalEdgeStyle;rounded=0;orthogonalLoop=1;jettySize=auto;html=1;exitX=0.5;exitY=1;exitDx=0;exitDy=0;" edge="1" parent="1" source="JwqNrnTWfQRhDdLODumR-4" target="JwqNrnTWfQRhDdLODumR-5">
          <mxGeometry relative="1" as="geometry" />
        </mxCell>
      </root>
    </mxGraphModel>
  </diagram>
</mxfile>
